<?xml version="1.0" encoding="utf-8"?>
<!-- Generator: Adobe Illustrator 24.2.0, SVG Export Plug-In . SVG Version: 6.00 Build 0)  -->
<svg version="1.1" id="Layer_1" xmlns="http://www.w3.org/2000/svg" xmlns:xlink="http://www.w3.org/1999/xlink" x="0px" y="0px"
	 viewBox="0 0 150 62" style="enable-background:new 0 0 150 62;" xml:space="preserve">
<style type="text/css">
	.st0{fill:#1F1646;}
	.st1{fill:url(#SVGID_1_);}
	.st2{fill:url(#SVGID_2_);}
	.st3{fill:url(#SVGID_3_);}
	.st4{fill:url(#SVGID_4_);}
	.st5{fill:url(#SVGID_5_);}
	.st6{fill:url(#SVGID_6_);}
	.st7{fill:url(#SVGID_7_);}
	.st8{fill:url(#SVGID_8_);}
	.st9{fill:url(#SVGID_9_);}
	.st10{fill:url(#SVGID_10_);}
	.st11{fill:url(#SVGID_11_);}
	.st12{fill:url(#SVGID_12_);}
	.st13{fill:url(#SVGID_13_);}
	.st14{fill:url(#SVGID_14_);}
	.st15{fill:url(#SVGID_15_);}
	.st16{fill:url(#SVGID_16_);}
	.st17{fill:url(#SVGID_17_);}
	.st18{fill:url(#SVGID_18_);}
	.st19{fill:url(#SVGID_19_);}
	.st20{fill:url(#SVGID_20_);}
	.st21{fill:url(#SVGID_21_);}
	.st22{fill:url(#SVGID_22_);}
	.st23{fill:url(#SVGID_23_);}
	.st24{fill:url(#SVGID_24_);}
	.st25{fill:url(#SVGID_25_);}
	.st26{fill:url(#SVGID_26_);}
	.st27{fill:url(#SVGID_27_);}
	.st28{fill:url(#SVGID_28_);}
	.st29{fill:url(#SVGID_29_);}
	.st30{fill:url(#SVGID_30_);}
	.st31{fill:url(#SVGID_31_);}
	.st32{fill:url(#SVGID_32_);}
	.st33{fill:url(#SVGID_33_);}
	.st34{fill:url(#SVGID_34_);}
	.st35{fill:url(#SVGID_35_);}
	.st36{fill:url(#SVGID_36_);}
</style>
<g>
	<g>
		<path class="st0" d="M41.6,52.35c0,3.65-2.56,6.11-6.36,6.11c-3.84,0-6.42-2.45-6.42-6.11V37.57h-3.63v14.91
			c0,5.41,4.04,9.04,10.05,9.04c5.99,0,10.02-3.63,10.02-9.04V37.57H41.6V52.35z"/>
		<polygon class="st0" points="73.94,37.41 70.09,37.41 61.95,55.29 53.81,37.49 53.77,37.41 49.92,37.41 48.42,61.2 52.08,61.2 
			53.03,43.99 60.84,61.11 60.88,61.2 62.98,61.2 70.86,43.93 71.81,61.2 75.44,61.2 73.95,37.54 		"/>
		<polygon class="st0" points="120.82,54.94 105.5,37.57 103.18,37.57 103.18,61.2 106.84,61.2 106.78,43.82 122.07,61.2 
			124.38,61.2 124.38,37.57 120.73,37.57 		"/>
		<polygon class="st0" points="17.64,54.94 2.32,37.57 0,37.57 0,61.2 3.66,61.2 3.6,43.82 18.88,61.2 21.2,61.2 21.2,37.57 
			17.54,37.57 		"/>
		<polygon class="st0" points="89.56,42.2 89.56,42.2 89.56,42.2 89.61,42.32 93.98,52.71 93.97,52.71 95.26,55.77 95.27,55.77 
			97.54,61.2 101.41,61.2 91.23,37.65 91.19,37.57 87.89,37.57 77.64,61.2 81.54,61.2 89.51,42.32 		"/>
		<polygon class="st0" points="138.14,42.2 138.14,42.2 142.57,52.71 142.56,52.71 143.85,55.77 143.86,55.77 146.13,61.2 150,61.2 
			139.82,37.65 139.78,37.57 136.47,37.57 126.22,61.2 130.13,61.2 138.14,42.2 		"/>
	</g>
	<g>
		<linearGradient id="SVGID_1_" gradientUnits="userSpaceOnUse" x1="59.2358" y1="-1.6099" x2="59.2358" y2="32.29">
			<stop  offset="0.1853" style="stop-color:#C5D82D"/>
			<stop  offset="0.5021" style="stop-color:#008F47"/>
			<stop  offset="0.9099" style="stop-color:#2D2640"/>
		</linearGradient>
		<path class="st1" d="M58.14,21.73c-0.22-0.18-0.39-0.41-0.5-0.67c-0.36-0.88,0.05-1.89,0.93-2.25c0.59-0.25,1.26-0.15,1.76,0.26
			c0.22,0.18,0.39,0.41,0.5,0.67c0.37,0.88-0.05,1.89-0.93,2.25C59.31,22.23,58.64,22.14,58.14,21.73L58.14,21.73z"/>
		<linearGradient id="SVGID_2_" gradientUnits="userSpaceOnUse" x1="61.6279" y1="-1.6099" x2="61.6279" y2="32.29">
			<stop  offset="0.1853" style="stop-color:#C5D82D"/>
			<stop  offset="0.5021" style="stop-color:#008F47"/>
			<stop  offset="0.9099" style="stop-color:#2D2640"/>
		</linearGradient>
		<path class="st2" d="M60.34,16.4c-0.31-0.25-0.54-0.59-0.66-0.98c-0.33-1.07,0.28-2.21,1.35-2.54c0.65-0.2,1.35-0.06,1.88,0.37
			c0.31,0.25,0.54,0.59,0.65,0.98c0.33,1.07-0.28,2.21-1.35,2.54C61.57,16.97,60.87,16.83,60.34,16.4L60.34,16.4z"/>
		<linearGradient id="SVGID_3_" gradientUnits="userSpaceOnUse" x1="64.8795" y1="-1.6099" x2="64.8795" y2="32.29">
			<stop  offset="0.1853" style="stop-color:#C5D82D"/>
			<stop  offset="0.5021" style="stop-color:#008F47"/>
			<stop  offset="0.9099" style="stop-color:#2D2640"/>
		</linearGradient>
		<path class="st3" d="M63.38,10.77c-0.43-0.35-0.71-0.82-0.82-1.37c-0.26-1.28,0.58-2.54,1.86-2.79c0.7-0.14,1.42,0.04,1.97,0.49
			c0.43,0.35,0.71,0.82,0.82,1.37c0.26,1.28-0.58,2.54-1.86,2.79C64.65,11.4,63.93,11.22,63.38,10.77z"/>
		<linearGradient id="SVGID_4_" gradientUnits="userSpaceOnUse" x1="69.1172" y1="-1.6099" x2="69.1172" y2="32.29">
			<stop  offset="0.1853" style="stop-color:#C5D82D"/>
			<stop  offset="0.5021" style="stop-color:#008F47"/>
			<stop  offset="0.9099" style="stop-color:#2D2640"/>
		</linearGradient>
		<path class="st4" d="M67.37,4.9c-0.57-0.47-0.92-1.13-1-1.86c-0.15-1.51,0.96-2.86,2.47-3.01c0.73-0.07,1.45,0.14,2.02,0.61
			c0.57,0.47,0.92,1.13,1,1.86c0.15,1.51-0.96,2.86-2.47,3.01C68.66,5.58,67.94,5.37,67.37,4.9L67.37,4.9z"/>
		<linearGradient id="SVGID_5_" gradientUnits="userSpaceOnUse" x1="53.601" y1="-1.6099" x2="53.601" y2="32.29">
			<stop  offset="0.1853" style="stop-color:#C5D82D"/>
			<stop  offset="0.5021" style="stop-color:#008F47"/>
			<stop  offset="0.9099" style="stop-color:#2D2640"/>
		</linearGradient>
		<path class="st5" d="M52.64,19.96c-0.35-0.19-0.64-0.48-0.83-0.83c-0.53-0.99-0.16-2.22,0.83-2.75c0.6-0.32,1.32-0.32,1.92,0
			c0.35,0.19,0.64,0.48,0.83,0.83c0.53,0.99,0.16,2.22-0.83,2.75C53.96,20.28,53.25,20.28,52.64,19.96
			C52.64,19.96,52.64,19.96,52.64,19.96z"/>
		<linearGradient id="SVGID_6_" gradientUnits="userSpaceOnUse" x1="55.6399" y1="-1.6099" x2="55.6399" y2="32.29">
			<stop  offset="0.1853" style="stop-color:#C5D82D"/>
			<stop  offset="0.5021" style="stop-color:#008F47"/>
			<stop  offset="0.9099" style="stop-color:#2D2640"/>
		</linearGradient>
		<path class="st6" d="M54.52,13.85c-0.49-0.26-0.86-0.67-1.07-1.18c-0.5-1.21,0.07-2.6,1.28-3.1c0.66-0.27,1.4-0.24,2.03,0.1
			c0.49,0.26,0.86,0.67,1.07,1.18c0.5,1.21-0.07,2.6-1.28,3.1C55.89,14.22,55.15,14.18,54.52,13.85z"/>
		<linearGradient id="SVGID_7_" gradientUnits="userSpaceOnUse" x1="58.5935" y1="-1.6099" x2="58.5935" y2="32.29">
			<stop  offset="0.1853" style="stop-color:#C5D82D"/>
			<stop  offset="0.5021" style="stop-color:#008F47"/>
			<stop  offset="0.9099" style="stop-color:#2D2640"/>
		</linearGradient>
		<path class="st7" d="M57.3,7.31c-0.65-0.35-1.12-0.92-1.34-1.63c-0.44-1.45,0.38-2.99,1.83-3.44c0.7-0.21,1.45-0.14,2.1,0.2
			c0.65,0.35,1.12,0.92,1.34,1.63c0.44,1.45-0.38,2.99-1.83,3.44C58.69,7.73,57.95,7.66,57.3,7.31L57.3,7.31z"/>
		<linearGradient id="SVGID_8_" gradientUnits="userSpaceOnUse" x1="47.1276" y1="-1.6099" x2="47.1276" y2="32.29">
			<stop  offset="0.1853" style="stop-color:#C5D82D"/>
			<stop  offset="0.5021" style="stop-color:#008F47"/>
			<stop  offset="0.9099" style="stop-color:#2D2640"/>
		</linearGradient>
		<path class="st8" d="M46.44,18.59c-0.53-0.16-0.98-0.49-1.28-0.95c-0.73-1.09-0.44-2.56,0.65-3.29c0.59-0.4,1.33-0.51,2.01-0.3
			c0.53,0.16,0.97,0.49,1.28,0.95c0.73,1.09,0.44,2.56-0.65,3.29C47.86,18.69,47.12,18.8,46.44,18.59z"/>
		<linearGradient id="SVGID_9_" gradientUnits="userSpaceOnUse" x1="48.6836" y1="-1.6099" x2="48.6836" y2="32.29">
			<stop  offset="0.1853" style="stop-color:#C5D82D"/>
			<stop  offset="0.5021" style="stop-color:#008F47"/>
			<stop  offset="0.9099" style="stop-color:#2D2640"/>
		</linearGradient>
		<path class="st9" d="M47.89,11.64c-0.7-0.21-1.28-0.69-1.63-1.33c-0.72-1.34-0.21-3.01,1.13-3.73c0.65-0.35,1.39-0.42,2.1-0.21
			c0.7,0.21,1.28,0.69,1.63,1.33c0.72,1.34,0.21,3.01-1.12,3.73C49.34,11.78,48.59,11.85,47.89,11.64L47.89,11.64z"/>
		<linearGradient id="SVGID_10_" gradientUnits="userSpaceOnUse" x1="39.7683" y1="-1.6099" x2="39.7683" y2="32.29">
			<stop  offset="0.1853" style="stop-color:#C5D82D"/>
			<stop  offset="0.5021" style="stop-color:#008F47"/>
			<stop  offset="0.9099" style="stop-color:#2D2640"/>
		</linearGradient>
		<path class="st10" d="M39.5,17.72c-0.73-0.07-1.39-0.42-1.86-0.99c-0.96-1.17-0.8-2.91,0.38-3.88c0.57-0.47,1.28-0.69,2.02-0.61
			c0.73,0.07,1.39,0.42,1.86,0.99c0.96,1.17,0.8,2.91-0.38,3.88C40.95,17.57,40.23,17.79,39.5,17.72L39.5,17.72z"/>
		<linearGradient id="SVGID_11_" gradientUnits="userSpaceOnUse" x1="109.2368" y1="-1.6099" x2="109.2368" y2="32.29">
			<stop  offset="0.1853" style="stop-color:#C5D82D"/>
			<stop  offset="0.5021" style="stop-color:#008F47"/>
			<stop  offset="0.9099" style="stop-color:#2D2640"/>
		</linearGradient>
		<path class="st11" d="M111.98,14.6c0.07,0.73-0.14,1.45-0.61,2.02c-0.96,1.17-2.7,1.35-3.87,0.39c-0.57-0.47-0.92-1.12-1-1.86
			c-0.07-0.73,0.14-1.45,0.61-2.02c0.47-0.57,1.13-0.92,1.86-1c0.73-0.07,1.45,0.14,2.02,0.61C111.55,13.21,111.9,13.87,111.98,14.6
			L111.98,14.6z"/>
		<linearGradient id="SVGID_12_" gradientUnits="userSpaceOnUse" x1="101.8814" y1="-1.6099" x2="101.8814" y2="32.29">
			<stop  offset="0.1853" style="stop-color:#C5D82D"/>
			<stop  offset="0.5021" style="stop-color:#008F47"/>
			<stop  offset="0.9099" style="stop-color:#2D2640"/>
		</linearGradient>
		<path class="st12" d="M104.24,16c0.06,0.55-0.08,1.09-0.39,1.55c-0.73,1.09-2.2,1.39-3.29,0.66c-0.59-0.4-0.98-1.03-1.05-1.74
			c-0.06-0.55,0.08-1.09,0.39-1.55c0.35-0.53,0.89-0.89,1.51-1.01c0.62-0.12,1.25,0,1.78,0.35C103.79,14.66,104.17,15.29,104.24,16z
			"/>
		<linearGradient id="SVGID_13_" gradientUnits="userSpaceOnUse" x1="95.4135" y1="-1.6099" x2="95.4135" y2="32.29">
			<stop  offset="0.1853" style="stop-color:#C5D82D"/>
			<stop  offset="0.5021" style="stop-color:#008F47"/>
			<stop  offset="0.9099" style="stop-color:#2D2640"/>
		</linearGradient>
		<path class="st13" d="M97.44,17.91c0.04,0.4-0.04,0.8-0.23,1.15c-0.53,0.99-1.76,1.37-2.75,0.84c-0.6-0.32-1-0.92-1.07-1.59
			c-0.04-0.4,0.04-0.8,0.23-1.15c0.26-0.48,0.68-0.83,1.2-0.99c0.52-0.16,1.07-0.1,1.55,0.15C96.97,16.63,97.37,17.23,97.44,17.91
			L97.44,17.91z"/>
		<linearGradient id="SVGID_14_" gradientUnits="userSpaceOnUse" x1="89.7855" y1="-1.6099" x2="89.7855" y2="32.29">
			<stop  offset="0.1853" style="stop-color:#C5D82D"/>
			<stop  offset="0.5021" style="stop-color:#008F47"/>
			<stop  offset="0.9099" style="stop-color:#2D2640"/>
		</linearGradient>
		<path class="st14" d="M91.5,20.18c0.03,0.28-0.01,0.56-0.12,0.83c-0.36,0.88-1.37,1.3-2.25,0.94c-0.59-0.24-1-0.79-1.06-1.43
			c-0.03-0.28,0.01-0.56,0.12-0.83c0.18-0.43,0.51-0.76,0.93-0.94c0.43-0.18,0.89-0.18,1.32,0C91.03,19,91.44,19.55,91.5,20.18
			C91.5,20.18,91.5,20.18,91.5,20.18z"/>
		<linearGradient id="SVGID_15_" gradientUnits="userSpaceOnUse" x1="84.9427" y1="-1.6099" x2="84.9427" y2="32.29">
			<stop  offset="0.1853" style="stop-color:#C5D82D"/>
			<stop  offset="0.5021" style="stop-color:#008F47"/>
			<stop  offset="0.9099" style="stop-color:#2D2640"/>
		</linearGradient>
		<path class="st15" d="M86.38,22.72c0.02,0.19,0,0.38-0.06,0.56c-0.23,0.76-1.04,1.2-1.8,0.97c-0.56-0.17-0.96-0.66-1.02-1.24
			c-0.02-0.19,0-0.38,0.06-0.56c0.11-0.37,0.36-0.68,0.7-0.86c0.34-0.18,0.73-0.22,1.1-0.11C85.92,21.64,86.33,22.13,86.38,22.72z"
			/>
		<linearGradient id="SVGID_16_" gradientUnits="userSpaceOnUse" x1="80.8261" y1="-1.6099" x2="80.8261" y2="32.29">
			<stop  offset="0.1853" style="stop-color:#C5D82D"/>
			<stop  offset="0.5021" style="stop-color:#008F47"/>
			<stop  offset="0.9099" style="stop-color:#2D2640"/>
		</linearGradient>
		<path class="st16" d="M82.02,25.41c0.01,0.12,0.01,0.24-0.02,0.35c-0.13,0.65-0.76,1.07-1.41,0.94c-0.51-0.1-0.91-0.54-0.96-1.06
			c-0.01-0.12-0.01-0.23,0.02-0.35c0.06-0.31,0.24-0.59,0.51-0.76c0.27-0.18,0.59-0.24,0.9-0.18
			C81.57,24.46,81.97,24.89,82.02,25.41L82.02,25.41z"/>
		<linearGradient id="SVGID_17_" gradientUnits="userSpaceOnUse" x1="77.3753" y1="-1.6099" x2="77.3753" y2="32.29">
			<stop  offset="0.1853" style="stop-color:#C5D82D"/>
			<stop  offset="0.5021" style="stop-color:#008F47"/>
			<stop  offset="0.9099" style="stop-color:#2D2640"/>
		</linearGradient>
		<path class="st17" d="M78.35,28.19c0.01,0.06,0.01,0.13,0,0.19c-0.05,0.53-0.53,0.93-1.06,0.88c-0.46-0.04-0.83-0.41-0.88-0.87
			c-0.01-0.06-0.01-0.13,0-0.19c0.03-0.26,0.15-0.49,0.35-0.66c0.2-0.17,0.45-0.24,0.71-0.22C77.93,27.36,78.3,27.73,78.35,28.19
			C78.35,28.19,78.35,28.19,78.35,28.19z"/>
		<linearGradient id="SVGID_18_" gradientUnits="userSpaceOnUse" x1="74.5271" y1="-1.6099" x2="74.5271" y2="32.29">
			<stop  offset="0.1853" style="stop-color:#C5D82D"/>
			<stop  offset="0.5021" style="stop-color:#008F47"/>
			<stop  offset="0.9099" style="stop-color:#2D2640"/>
		</linearGradient>
		<path class="st18" d="M75.3,30.98c0,0.03,0,0.05,0,0.08c0,0.43-0.35,0.77-0.77,0.77c-0.4,0-0.73-0.3-0.77-0.69
			c0-0.03,0-0.05,0-0.08c0-0.43,0.35-0.77,0.77-0.77C74.93,30.29,75.26,30.59,75.3,30.98L75.3,30.98z"/>
		<linearGradient id="SVGID_19_" gradientUnits="userSpaceOnUse" x1="100.3035" y1="-1.6099" x2="100.3035" y2="32.29">
			<stop  offset="0.1853" style="stop-color:#C5D82D"/>
			<stop  offset="0.5021" style="stop-color:#008F47"/>
			<stop  offset="0.9099" style="stop-color:#2D2640"/>
		</linearGradient>
		<path class="st19" d="M102.94,8.12c0.21,0.7,0.14,1.45-0.2,2.1c-0.71,1.34-2.39,1.85-3.72,1.14c-0.65-0.35-1.12-0.92-1.34-1.63
			c-0.21-0.7-0.14-1.45,0.2-2.1c0.35-0.65,0.92-1.13,1.63-1.34c0.7-0.21,1.45-0.14,2.1,0.2C102.25,6.84,102.72,7.42,102.94,8.12
			L102.94,8.12z"/>
		<linearGradient id="SVGID_20_" gradientUnits="userSpaceOnUse" x1="93.3553" y1="-1.6099" x2="93.3553" y2="32.29">
			<stop  offset="0.1853" style="stop-color:#C5D82D"/>
			<stop  offset="0.5021" style="stop-color:#008F47"/>
			<stop  offset="0.9099" style="stop-color:#2D2640"/>
		</linearGradient>
		<path class="st20" d="M95.63,11.01c0.16,0.53,0.14,1.08-0.08,1.59c-0.5,1.21-1.89,1.79-3.1,1.29c-0.66-0.27-1.16-0.82-1.37-1.5
			c-0.16-0.53-0.14-1.08,0.08-1.6c0.24-0.59,0.7-1.04,1.28-1.29c0.59-0.24,1.23-0.24,1.82,0C94.92,9.77,95.42,10.32,95.63,11.01z"/>
		<linearGradient id="SVGID_21_" gradientUnits="userSpaceOnUse" x1="87.3765" y1="-1.6099" x2="87.3765" y2="32.29">
			<stop  offset="0.1853" style="stop-color:#C5D82D"/>
			<stop  offset="0.5021" style="stop-color:#008F47"/>
			<stop  offset="0.9099" style="stop-color:#2D2640"/>
		</linearGradient>
		<path class="st21" d="M89.32,14.2c0.12,0.38,0.12,0.79,0,1.18c-0.32,1.07-1.46,1.68-2.53,1.36c-0.65-0.2-1.16-0.7-1.36-1.36
			c-0.12-0.38-0.12-0.79,0-1.18c0.16-0.52,0.51-0.95,0.99-1.2c0.48-0.26,1.03-0.31,1.55-0.15C88.62,13.04,89.12,13.55,89.32,14.2
			L89.32,14.2z"/>
		<linearGradient id="SVGID_22_" gradientUnits="userSpaceOnUse" x1="82.2946" y1="-1.6099" x2="82.2946" y2="32.29">
			<stop  offset="0.1853" style="stop-color:#C5D82D"/>
			<stop  offset="0.5021" style="stop-color:#008F47"/>
			<stop  offset="0.9099" style="stop-color:#2D2640"/>
		</linearGradient>
		<path class="st22" d="M83.95,17.59c0.08,0.27,0.1,0.55,0.04,0.83c-0.18,0.93-1.09,1.54-2.03,1.36c-0.63-0.12-1.13-0.58-1.32-1.19
			c-0.08-0.27-0.1-0.55-0.04-0.83c0.09-0.45,0.35-0.84,0.73-1.1c0.38-0.26,0.84-0.35,1.29-0.26C83.25,16.52,83.76,16.98,83.95,17.59
			C83.95,17.59,83.95,17.59,83.95,17.59z"/>
		<linearGradient id="SVGID_23_" gradientUnits="userSpaceOnUse" x1="78.034" y1="-1.6099" x2="78.034" y2="32.29">
			<stop  offset="0.1853" style="stop-color:#C5D82D"/>
			<stop  offset="0.5021" style="stop-color:#008F47"/>
			<stop  offset="0.9099" style="stop-color:#2D2640"/>
		</linearGradient>
		<path class="st23" d="M79.42,21.07c0.06,0.18,0.07,0.37,0.06,0.56c-0.08,0.79-0.79,1.38-1.58,1.3c-0.58-0.06-1.07-0.46-1.25-1.02
			c-0.06-0.18-0.07-0.37-0.06-0.56c0.04-0.39,0.22-0.73,0.52-0.98c0.3-0.25,0.68-0.36,1.06-0.32
			C78.76,20.11,79.25,20.51,79.42,21.07z"/>
		<linearGradient id="SVGID_24_" gradientUnits="userSpaceOnUse" x1="74.5179" y1="-1.6099" x2="74.5179" y2="32.29">
			<stop  offset="0.1853" style="stop-color:#C5D82D"/>
			<stop  offset="0.5021" style="stop-color:#008F47"/>
			<stop  offset="0.9099" style="stop-color:#2D2640"/>
		</linearGradient>
		<path class="st24" d="M75.66,24.57c0.03,0.11,0.05,0.23,0.05,0.35c0,0.66-0.54,1.2-1.2,1.2c-0.52,0-1-0.35-1.15-0.85
			c-0.03-0.11-0.05-0.23-0.05-0.35c0-0.32,0.12-0.62,0.35-0.85c0.23-0.23,0.53-0.35,0.85-0.35C75.04,23.72,75.51,24.07,75.66,24.57
			L75.66,24.57z"/>
		<linearGradient id="SVGID_25_" gradientUnits="userSpaceOnUse" x1="71.6713" y1="-1.6099" x2="71.6713" y2="32.29">
			<stop  offset="0.1853" style="stop-color:#C5D82D"/>
			<stop  offset="0.5021" style="stop-color:#008F47"/>
			<stop  offset="0.9099" style="stop-color:#2D2640"/>
		</linearGradient>
		<path class="st25" d="M72.6,28.01c0.02,0.06,0.03,0.12,0.04,0.19c0.05,0.53-0.34,1.01-0.87,1.07c-0.46,0.05-0.89-0.24-1.03-0.68
			c-0.02-0.06-0.03-0.13-0.04-0.19c-0.03-0.26,0.05-0.51,0.22-0.71c0.16-0.2,0.4-0.33,0.66-0.35C72.04,27.28,72.47,27.57,72.6,28.01
			C72.6,28.01,72.6,28.01,72.6,28.01z"/>
		<linearGradient id="SVGID_26_" gradientUnits="userSpaceOnUse" x1="90.3811" y1="-1.6099" x2="90.3811" y2="32.29">
			<stop  offset="0.1853" style="stop-color:#C5D82D"/>
			<stop  offset="0.5021" style="stop-color:#008F47"/>
			<stop  offset="0.9099" style="stop-color:#2D2640"/>
		</linearGradient>
		<path class="st26" d="M92.81,3.53c0.35,0.65,0.42,1.39,0.21,2.1c-0.44,1.45-1.98,2.28-3.43,1.84c-0.7-0.21-1.28-0.69-1.63-1.33
			c-0.35-0.65-0.42-1.39-0.21-2.1c0.21-0.7,0.69-1.28,1.33-1.63c0.65-0.35,1.39-0.42,2.1-0.21C91.88,2.41,92.46,2.88,92.81,3.53
			L92.81,3.53z"/>
		<linearGradient id="SVGID_27_" gradientUnits="userSpaceOnUse" x1="84.1072" y1="-1.6099" x2="84.1072" y2="32.29">
			<stop  offset="0.1853" style="stop-color:#C5D82D"/>
			<stop  offset="0.5021" style="stop-color:#008F47"/>
			<stop  offset="0.9099" style="stop-color:#2D2640"/>
		</linearGradient>
		<path class="st27" d="M86.2,7.79c0.26,0.49,0.34,1.03,0.24,1.58c-0.25,1.28-1.51,2.12-2.79,1.87c-0.7-0.14-1.3-0.58-1.63-1.21
			c-0.26-0.49-0.34-1.04-0.24-1.58c0.12-0.62,0.48-1.16,1.01-1.51c0.53-0.35,1.16-0.48,1.78-0.36C85.27,6.72,85.86,7.16,86.2,7.79z"
			/>
		<linearGradient id="SVGID_28_" gradientUnits="userSpaceOnUse" x1="78.8471" y1="-1.6099" x2="78.8471" y2="32.29">
			<stop  offset="0.1853" style="stop-color:#C5D82D"/>
			<stop  offset="0.5021" style="stop-color:#008F47"/>
			<stop  offset="0.9099" style="stop-color:#2D2640"/>
		</linearGradient>
		<path class="st28" d="M80.64,12.15c0.19,0.35,0.27,0.75,0.23,1.15c-0.11,1.12-1.1,1.93-2.22,1.83c-0.68-0.07-1.27-0.46-1.6-1.06
			c-0.19-0.35-0.27-0.75-0.23-1.15c0.05-0.54,0.31-1.03,0.73-1.37c0.42-0.34,0.95-0.51,1.49-0.45
			C79.72,11.15,80.32,11.55,80.64,12.15L80.64,12.15z"/>
		<linearGradient id="SVGID_29_" gradientUnits="userSpaceOnUse" x1="74.5066" y1="-1.6099" x2="74.5066" y2="32.29">
			<stop  offset="0.1853" style="stop-color:#C5D82D"/>
			<stop  offset="0.5021" style="stop-color:#008F47"/>
			<stop  offset="0.9099" style="stop-color:#2D2640"/>
		</linearGradient>
		<path class="st29" d="M76.03,16.52c0.13,0.25,0.2,0.52,0.2,0.81c0,0.95-0.77,1.73-1.72,1.73c-0.64,0-1.22-0.35-1.52-0.91
			c-0.13-0.25-0.2-0.52-0.2-0.81c0-0.46,0.18-0.89,0.5-1.22c0.33-0.33,0.76-0.51,1.22-0.51C75.14,15.61,75.73,15.96,76.03,16.52
			C76.03,16.52,76.03,16.52,76.03,16.52z"/>
		<linearGradient id="SVGID_30_" gradientUnits="userSpaceOnUse" x1="70.9919" y1="-1.6099" x2="70.9919" y2="32.29">
			<stop  offset="0.1853" style="stop-color:#C5D82D"/>
			<stop  offset="0.5021" style="stop-color:#008F47"/>
			<stop  offset="0.9099" style="stop-color:#2D2640"/>
		</linearGradient>
		<path class="st30" d="M72.27,20.82c0.09,0.17,0.14,0.35,0.16,0.54c0.08,0.79-0.5,1.51-1.3,1.59c-0.58,0.06-1.14-0.24-1.42-0.76
			c-0.09-0.17-0.14-0.35-0.16-0.54c-0.04-0.39,0.08-0.76,0.32-1.06c0.25-0.3,0.59-0.49,0.98-0.52
			C71.43,20.01,71.99,20.3,72.27,20.82z"/>
		<linearGradient id="SVGID_31_" gradientUnits="userSpaceOnUse" x1="68.2113" y1="-1.6099" x2="68.2113" y2="32.29">
			<stop  offset="0.1853" style="stop-color:#C5D82D"/>
			<stop  offset="0.5021" style="stop-color:#008F47"/>
			<stop  offset="0.9099" style="stop-color:#2D2640"/>
		</linearGradient>
		<path class="st31" d="M69.27,24.98c0.06,0.1,0.1,0.21,0.12,0.33c0.13,0.65-0.29,1.28-0.94,1.41c-0.51,0.1-1.05-0.15-1.29-0.61
			c-0.06-0.1-0.1-0.22-0.12-0.33c-0.06-0.31,0-0.63,0.18-0.9c0.18-0.27,0.45-0.45,0.76-0.51C68.49,24.27,69.02,24.52,69.27,24.98
			L69.27,24.98z"/>
		<linearGradient id="SVGID_32_" gradientUnits="userSpaceOnUse" x1="79.8509" y1="-1.6099" x2="79.8509" y2="32.29">
			<stop  offset="0.1853" style="stop-color:#C5D82D"/>
			<stop  offset="0.5021" style="stop-color:#008F47"/>
			<stop  offset="0.9099" style="stop-color:#2D2640"/>
		</linearGradient>
		<path class="st32" d="M81.98,1c0.47,0.57,0.69,1.28,0.61,2.02c-0.15,1.51-1.5,2.62-3.01,2.48c-0.73-0.07-1.39-0.42-1.86-0.99
			c-0.47-0.57-0.69-1.28-0.61-2.02c0.07-0.73,0.42-1.39,0.99-1.86c0.57-0.47,1.28-0.69,2.02-0.61C80.85,0.08,81.51,0.44,81.98,1
			L81.98,1z"/>
		<linearGradient id="SVGID_33_" gradientUnits="userSpaceOnUse" x1="74.4924" y1="-1.6099" x2="74.4924" y2="32.29">
			<stop  offset="0.1853" style="stop-color:#C5D82D"/>
			<stop  offset="0.5021" style="stop-color:#008F47"/>
			<stop  offset="0.9099" style="stop-color:#2D2640"/>
		</linearGradient>
		<path class="st33" d="M76.33,6.47c0.35,0.43,0.54,0.95,0.54,1.5c0,1.31-1.06,2.38-2.37,2.38c-0.71,0-1.38-0.31-1.84-0.87
			c-0.35-0.43-0.54-0.95-0.54-1.5c0-0.63,0.25-1.23,0.69-1.68c0.45-0.45,1.04-0.7,1.68-0.7C75.2,5.6,75.87,5.91,76.33,6.47z"/>
		<linearGradient id="SVGID_34_" gradientUnits="userSpaceOnUse" x1="70.1531" y1="-1.6099" x2="70.1531" y2="32.29">
			<stop  offset="0.1853" style="stop-color:#C5D82D"/>
			<stop  offset="0.5021" style="stop-color:#008F47"/>
			<stop  offset="0.9099" style="stop-color:#2D2640"/>
		</linearGradient>
		<path class="st34" d="M71.72,11.83c0.26,0.31,0.41,0.69,0.45,1.09c0.11,1.12-0.7,2.11-1.82,2.22c-0.68,0.07-1.34-0.21-1.77-0.73
			c-0.26-0.31-0.41-0.69-0.45-1.09c-0.05-0.54,0.11-1.07,0.45-1.49c0.34-0.42,0.83-0.68,1.37-0.73
			C70.63,11.03,71.29,11.31,71.72,11.83L71.72,11.83z"/>
		<linearGradient id="SVGID_35_" gradientUnits="userSpaceOnUse" x1="66.7208" y1="-1.6099" x2="66.7208" y2="32.29">
			<stop  offset="0.1853" style="stop-color:#C5D82D"/>
			<stop  offset="0.5021" style="stop-color:#008F47"/>
			<stop  offset="0.9099" style="stop-color:#2D2640"/>
		</linearGradient>
		<path class="st35" d="M68.05,17.02c0.18,0.22,0.3,0.47,0.36,0.76c0.19,0.93-0.42,1.84-1.35,2.03c-0.63,0.13-1.27-0.1-1.67-0.6
			c-0.18-0.22-0.3-0.47-0.36-0.76c-0.09-0.45,0-0.91,0.26-1.3s0.64-0.64,1.1-0.73C67.01,16.3,67.65,16.53,68.05,17.02L68.05,17.02z"
			/>
		<linearGradient id="SVGID_36_" gradientUnits="userSpaceOnUse" x1="64.0869" y1="-1.6099" x2="64.0869" y2="32.29">
			<stop  offset="0.1853" style="stop-color:#C5D82D"/>
			<stop  offset="0.5021" style="stop-color:#008F47"/>
			<stop  offset="0.9099" style="stop-color:#2D2640"/>
		</linearGradient>
		<path class="st36" d="M65.21,21.97c0.12,0.15,0.21,0.31,0.27,0.5c0.23,0.76-0.2,1.57-0.96,1.81c-0.56,0.17-1.17-0.01-1.54-0.47
			c-0.12-0.15-0.21-0.31-0.27-0.5c-0.11-0.37-0.07-0.76,0.11-1.1c0.18-0.34,0.49-0.59,0.86-0.7C64.23,21.33,64.83,21.52,65.21,21.97
			z"/>
	</g>
</g>
</svg>
